<svg role="img" viewBox="0 0 24 24" xmlns="http://www.w3.org/2000/svg" fill="currentColor"><title>Xiaohongshu</title><path d="M2.145 6.633h4.57v.9H3.135v1.534h3.37v.9H3.135v1.942h3.713v.9H2.145zm5.07 0h3.263c1.543 0 2.313.839 2.313 2.006 0 1.168-.77 2.007-2.313 2.007H8.313v2.12h-1.1zm1.1.9v2.213h1.986c.87 0 1.277-.415 1.277-1.107 0-.692-.408-1.106-1.277-1.106zm5.632-.9h4.725v.9h-1.813v5.133h-1.1V7.533h-1.812zm-3.015 10.79h1.09v-3.376h1.02v-.856h-1.02V12.29h-.986v.9H9.958v.857h1.943v1.256H9.958v.857h1.943v.542c-.652.074-1.36.11-2.045.129v.871c2.119-.048 4.2-.303 5.364-.79l.247.827c-1.004.404-2.61.645-4.327.748h-.001l-.147-.002zm2.096-3.376h1.09v3.363h-1.09zm6.827 3.377v-.9h-3.146v-1.256h2.645v-.857h-2.645v-1.256h3.112v-.857h-4.086v5.126z"/></svg>
